<mxfile host="app.diagrams.net" modified="2022-05-10T12:59:55.559Z" agent="5.0 (Windows NT 10.0; Win64; x64) AppleWebKit/537.36 (KHTML, like Gecko) Chrome/101.0.4951.54 Safari/537.36" etag="_B7RsITdGgnTw1VzvpAy" version="18.0.2" type="github">
  <diagram id="aNkTvLlGlRAXNMfGRCiO" name="Page-1">
    <mxGraphModel dx="1824" dy="952" grid="1" gridSize="10" guides="1" tooltips="1" connect="1" arrows="1" fold="1" page="1" pageScale="1" pageWidth="1169" pageHeight="827" math="0" shadow="0">
      <root>
        <mxCell id="0" />
        <mxCell id="1" parent="0" />
        <mxCell id="azl0_189tR_DPAjRDPvX-1" value="Koreňový uzol" style="rounded=0;whiteSpace=wrap;html=1;fontSize=20;fontStyle=1" parent="1" vertex="1">
          <mxGeometry x="40" y="379.7056790123456" width="118.31432579130328" height="58.51851851851851" as="geometry" />
        </mxCell>
        <mxCell id="azl0_189tR_DPAjRDPvX-2" value="" style="rounded=0;whiteSpace=wrap;html=1;fillColor=#A9C4EB;fontSize=20;fontStyle=1" parent="1" vertex="1">
          <mxGeometry x="237.19" y="10" width="226.77" height="800" as="geometry" />
        </mxCell>
        <mxCell id="azl0_189tR_DPAjRDPvX-3" value="Kľud" style="rounded=0;whiteSpace=wrap;html=1;fontSize=20;fontStyle=1" parent="1" vertex="1">
          <mxGeometry x="291.4179423065195" y="741.7283950617284" width="118.31432579130328" height="58.51851851851851" as="geometry" />
        </mxCell>
        <mxCell id="azl0_189tR_DPAjRDPvX-4" value="Vykonaj po &lt;br style=&quot;font-size: 20px;&quot;&gt;súboji" style="rounded=0;whiteSpace=wrap;html=1;fontSize=20;fontStyle=1" parent="1" vertex="1">
          <mxGeometry x="291.4179423065195" y="634.4444444444445" width="118.31432579130328" height="58.51851851851851" as="geometry" />
        </mxCell>
        <mxCell id="azl0_189tR_DPAjRDPvX-5" value="Súboj" style="rounded=0;whiteSpace=wrap;html=1;fontSize=20;fontStyle=1" parent="1" vertex="1">
          <mxGeometry x="291.4179423065195" y="457.2016049382716" width="118.31432579130328" height="58.51851851851851" as="geometry" />
        </mxCell>
        <mxCell id="azl0_189tR_DPAjRDPvX-6" value="Sebaobrana" style="rounded=0;whiteSpace=wrap;html=1;fontSize=20;fontStyle=1" parent="1" vertex="1">
          <mxGeometry x="291.4179423065195" y="191.14481481481482" width="118.31432579130328" height="58.51851851851851" as="geometry" />
        </mxCell>
        <mxCell id="azl0_189tR_DPAjRDPvX-7" value="Útek" style="rounded=0;whiteSpace=wrap;html=1;fontSize=20;fontStyle=1" parent="1" vertex="1">
          <mxGeometry x="291.4179423065195" y="20.0046913580247" width="118.31432579130328" height="58.51851851851851" as="geometry" />
        </mxCell>
        <mxCell id="azl0_189tR_DPAjRDPvX-9" value="" style="endArrow=classic;html=1;rounded=0;exitX=1;exitY=0.5;exitDx=0;exitDy=0;entryX=0;entryY=0.5;entryDx=0;entryDy=0;fontSize=20;fontStyle=1" parent="1" source="azl0_189tR_DPAjRDPvX-3" target="azl0_189tR_DPAjRDPvX-31" edge="1">
          <mxGeometry width="50" height="50" relative="1" as="geometry">
            <mxPoint x="552.6954117623142" y="692.9629629629629" as="sourcePoint" />
            <mxPoint x="542.835884613039" y="761.2345679012345" as="targetPoint" />
          </mxGeometry>
        </mxCell>
        <mxCell id="azl0_189tR_DPAjRDPvX-13" value="" style="endArrow=classic;html=1;rounded=0;exitX=1;exitY=0.5;exitDx=0;exitDy=0;fontSize=20;fontStyle=1" parent="1" edge="1">
          <mxGeometry width="50" height="50" relative="1" as="geometry">
            <mxPoint x="409.7322680978227" y="663.216049382716" as="sourcePoint" />
            <mxPoint x="542.835884613039" y="663.216049382716" as="targetPoint" />
          </mxGeometry>
        </mxCell>
        <mxCell id="azl0_189tR_DPAjRDPvX-37" value="" style="endArrow=classic;html=1;rounded=0;exitX=1;exitY=0.5;exitDx=0;exitDy=0;fontSize=20;fontStyle=1" parent="1" edge="1">
          <mxGeometry width="50" height="50" relative="1" as="geometry">
            <mxPoint x="409.7322680978227" y="485.9732098765432" as="sourcePoint" />
            <mxPoint x="542.835884613039" y="485.9732098765432" as="targetPoint" />
          </mxGeometry>
        </mxCell>
        <mxCell id="azl0_189tR_DPAjRDPvX-38" value="" style="endArrow=classic;html=1;rounded=0;exitX=1;exitY=0.5;exitDx=0;exitDy=0;fontSize=20;fontStyle=1" parent="1" edge="1">
          <mxGeometry width="50" height="50" relative="1" as="geometry">
            <mxPoint x="409.7322680978227" y="219.91641975308642" as="sourcePoint" />
            <mxPoint x="542.835884613039" y="219.91641975308642" as="targetPoint" />
          </mxGeometry>
        </mxCell>
        <mxCell id="azl0_189tR_DPAjRDPvX-39" value="" style="endArrow=classic;html=1;rounded=0;exitX=1;exitY=0.5;exitDx=0;exitDy=0;fontSize=20;fontStyle=1" parent="1" edge="1">
          <mxGeometry width="50" height="50" relative="1" as="geometry">
            <mxPoint x="409.7322680978227" y="48.776296296296294" as="sourcePoint" />
            <mxPoint x="542.835884613039" y="48.776296296296294" as="targetPoint" />
          </mxGeometry>
        </mxCell>
        <mxCell id="azl0_189tR_DPAjRDPvX-46" value="" style="rounded=0;whiteSpace=wrap;html=1;fillColor=#A9C4EB;fontSize=20;fontStyle=1" parent="1" vertex="1">
          <mxGeometry x="542.84" y="90" width="157.16" height="180" as="geometry" />
        </mxCell>
        <mxCell id="azl0_189tR_DPAjRDPvX-47" value="" style="rounded=0;whiteSpace=wrap;html=1;fillColor=#A9C4EB;fontSize=20;fontStyle=1" parent="1" vertex="1">
          <mxGeometry x="542.84" y="10" width="157.16" height="68.52" as="geometry" />
        </mxCell>
        <mxCell id="azl0_189tR_DPAjRDPvX-28" value="Útek" style="rounded=0;whiteSpace=wrap;html=1;fontSize=20;fontStyle=1" parent="1" vertex="1">
          <mxGeometry x="578.94" y="20" width="91.06" height="47.46" as="geometry" />
        </mxCell>
        <mxCell id="azl0_189tR_DPAjRDPvX-48" value="" style="endArrow=classic;html=1;rounded=0;fontSize=20;fontStyle=1;exitX=1;exitY=0.5;exitDx=0;exitDy=0;entryX=0;entryY=0.5;entryDx=0;entryDy=0;" parent="1" target="azl0_189tR_DPAjRDPvX-2" edge="1" source="azl0_189tR_DPAjRDPvX-1">
          <mxGeometry width="50" height="50" relative="1" as="geometry">
            <mxPoint x="170" y="430" as="sourcePoint" />
            <mxPoint x="224.5703482344331" y="351.4488888888889" as="targetPoint" />
          </mxGeometry>
        </mxCell>
        <mxCell id="OUoYBPH0FQ5n424oMsSg-2" value="" style="group;fontSize=20;" vertex="1" connectable="0" parent="1">
          <mxGeometry x="580" y="100" width="83.82" height="160" as="geometry" />
        </mxCell>
        <mxCell id="azl0_189tR_DPAjRDPvX-25" value="Stráž" style="rounded=0;whiteSpace=wrap;html=1;fontSize=20;fontStyle=1" parent="OUoYBPH0FQ5n424oMsSg-2" vertex="1">
          <mxGeometry y="116.53086658562326" width="83.82000000000005" height="43.46913341437674" as="geometry" />
        </mxCell>
        <mxCell id="azl0_189tR_DPAjRDPvX-26" value="Krytie" style="rounded=0;whiteSpace=wrap;html=1;fontSize=20;fontStyle=1" parent="OUoYBPH0FQ5n424oMsSg-2" vertex="1">
          <mxGeometry y="56.69889315696583" width="83.82000000000005" height="43.46913341437674" as="geometry" />
        </mxCell>
        <mxCell id="azl0_189tR_DPAjRDPvX-27" value="Granát" style="rounded=0;whiteSpace=wrap;html=1;fontSize=20;fontStyle=1" parent="OUoYBPH0FQ5n424oMsSg-2" vertex="1">
          <mxGeometry width="83.82000000000005" height="43.46913341437674" as="geometry" />
        </mxCell>
        <mxCell id="azl0_189tR_DPAjRDPvX-31" value="" style="rounded=0;whiteSpace=wrap;html=1;fillColor=#A9C4EB;fontSize=20;fontStyle=1" parent="1" vertex="1">
          <mxGeometry x="542.84" y="737.1604255319149" width="158.41647058823526" height="67.65957446808511" as="geometry" />
        </mxCell>
        <mxCell id="azl0_189tR_DPAjRDPvX-10" value="Stráž&amp;nbsp;" style="rounded=0;whiteSpace=wrap;html=1;fontSize=20;fontStyle=1" parent="1" vertex="1">
          <mxGeometry x="577.78" y="750" width="100" height="40" as="geometry" />
        </mxCell>
        <mxCell id="azl0_189tR_DPAjRDPvX-32" value="" style="rounded=0;whiteSpace=wrap;html=1;fillColor=#A9C4EB;fontSize=20;fontStyle=1" parent="1" vertex="1">
          <mxGeometry x="542.84" y="587.2872340425532" width="158.41647058823526" height="129.68085106382978" as="geometry" />
        </mxCell>
        <mxCell id="azl0_189tR_DPAjRDPvX-11" value="Kontrola mŕtvoly" style="rounded=0;whiteSpace=wrap;html=1;fontSize=20;fontStyle=1" parent="1" vertex="1">
          <mxGeometry x="573.03" y="660.59" width="106.97" height="49.41" as="geometry" />
        </mxCell>
        <mxCell id="azl0_189tR_DPAjRDPvX-12" value="Streľba do mŕtvoly" style="rounded=0;whiteSpace=wrap;html=1;fontSize=20;fontStyle=1" parent="1" vertex="1">
          <mxGeometry x="576.09" y="600" width="103.91" height="50" as="geometry" />
        </mxCell>
        <mxCell id="azl0_189tR_DPAjRDPvX-41" value="" style="rounded=0;whiteSpace=wrap;html=1;fillColor=#A9C4EB;fontSize=20;fontStyle=1" parent="1" vertex="1">
          <mxGeometry x="542.84" y="280" width="158.41647058823526" height="281.9148936170213" as="geometry" />
        </mxCell>
        <mxCell id="azl0_189tR_DPAjRDPvX-15" value="Stráž" style="rounded=0;whiteSpace=wrap;html=1;fontSize=20;fontStyle=1" parent="1" vertex="1">
          <mxGeometry x="581.0947011764706" y="499.9951670055872" width="80.64186851211072" height="42.06696065398732" as="geometry" />
        </mxCell>
        <mxCell id="azl0_189tR_DPAjRDPvX-16" value="Hľadaj" style="rounded=0;whiteSpace=wrap;html=1;fontSize=20;fontStyle=1" parent="1" vertex="1">
          <mxGeometry x="581.0947011764706" y="446.72625942780394" width="80.64186851211072" height="42.06696065398732" as="geometry" />
        </mxCell>
        <mxCell id="azl0_189tR_DPAjRDPvX-17" value="Bojuj" style="rounded=0;whiteSpace=wrap;html=1;fontSize=20;fontStyle=1" parent="1" vertex="1">
          <mxGeometry x="581.7247011764706" y="396.15226960288084" width="80.64186851211072" height="42.06696065398732" as="geometry" />
        </mxCell>
        <mxCell id="azl0_189tR_DPAjRDPvX-18" value="Nabi sa" style="rounded=0;whiteSpace=wrap;html=1;fontSize=20;fontStyle=1" parent="1" vertex="1">
          <mxGeometry x="581.0947011764706" y="345.22848449863574" width="80.64186851211072" height="42.06696065398732" as="geometry" />
        </mxCell>
        <mxCell id="azl0_189tR_DPAjRDPvX-19" value="Granát" style="rounded=0;whiteSpace=wrap;html=1;fontSize=20;fontStyle=1" parent="1" vertex="1">
          <mxGeometry x="581.0947011764706" y="292.7942577719164" width="80.64186851211072" height="42.06696065398732" as="geometry" />
        </mxCell>
        <mxCell id="azl0_189tR_DPAjRDPvX-42" value="" style="endArrow=classic;html=1;rounded=0;exitX=1;exitY=0.5;exitDx=0;exitDy=0;fontSize=20;fontStyle=1;entryX=0;entryY=0.5;entryDx=0;entryDy=0;" parent="1" edge="1" target="azl0_189tR_DPAjRDPvX-43" source="azl0_189tR_DPAjRDPvX-16">
          <mxGeometry width="50" height="50" relative="1" as="geometry">
            <mxPoint x="668.1108705882352" y="470.19106382978725" as="sourcePoint" />
            <mxPoint x="750" y="470.57446808510645" as="targetPoint" />
          </mxGeometry>
        </mxCell>
        <mxCell id="OUoYBPH0FQ5n424oMsSg-4" value="" style="group;fontSize=20;" vertex="1" connectable="0" parent="1">
          <mxGeometry x="980" y="320" width="170" height="150" as="geometry" />
        </mxCell>
        <mxCell id="azl0_189tR_DPAjRDPvX-45" value="" style="rounded=0;whiteSpace=wrap;html=1;fillColor=#A9C4EB;fontSize=20;fontStyle=1" parent="OUoYBPH0FQ5n424oMsSg-4" vertex="1">
          <mxGeometry width="170" height="150" as="geometry" />
        </mxCell>
        <mxCell id="azl0_189tR_DPAjRDPvX-23" value="Granát" style="rounded=0;whiteSpace=wrap;html=1;fontSize=20;fontStyle=1" parent="OUoYBPH0FQ5n424oMsSg-4" vertex="1">
          <mxGeometry x="41.43952380952376" y="90.58333333333331" width="87.12095238095239" height="46.4" as="geometry" />
        </mxCell>
        <mxCell id="azl0_189tR_DPAjRDPvX-24" value="Paľba" style="rounded=0;whiteSpace=wrap;html=1;fontSize=20;fontStyle=1" parent="OUoYBPH0FQ5n424oMsSg-4" vertex="1">
          <mxGeometry x="40.47619047619048" y="24.999999999999993" width="89.04761904761904" height="49.999999999999986" as="geometry" />
        </mxCell>
        <mxCell id="OUoYBPH0FQ5n424oMsSg-6" value="" style="group;fontSize=20;" vertex="1" connectable="0" parent="1">
          <mxGeometry x="770" y="350" width="180" height="235.51" as="geometry" />
        </mxCell>
        <mxCell id="azl0_189tR_DPAjRDPvX-43" value="" style="rounded=0;whiteSpace=wrap;html=1;fillColor=#A9C4EB;fontSize=20;fontStyle=1" parent="OUoYBPH0FQ5n424oMsSg-6" vertex="1">
          <mxGeometry width="180" height="235.50999999999996" as="geometry" />
        </mxCell>
        <mxCell id="azl0_189tR_DPAjRDPvX-20" value="Preskúmaj" style="rounded=0;whiteSpace=wrap;html=1;fontSize=20;fontStyle=1" parent="OUoYBPH0FQ5n424oMsSg-6" vertex="1">
          <mxGeometry x="30" y="163.41" width="120" height="54.91" as="geometry" />
        </mxCell>
        <mxCell id="azl0_189tR_DPAjRDPvX-21" value="Odkry" style="rounded=0;whiteSpace=wrap;html=1;fontSize=20;fontStyle=1" parent="OUoYBPH0FQ5n424oMsSg-6" vertex="1">
          <mxGeometry x="30" y="90.3" width="120" height="54.91" as="geometry" />
        </mxCell>
        <mxCell id="azl0_189tR_DPAjRDPvX-22" value="Prehľadaj" style="rounded=0;whiteSpace=wrap;html=1;fontSize=20;fontStyle=1" parent="OUoYBPH0FQ5n424oMsSg-6" vertex="1">
          <mxGeometry x="30" y="19.39" width="120" height="54.91" as="geometry" />
        </mxCell>
        <mxCell id="azl0_189tR_DPAjRDPvX-44" value="" style="endArrow=classic;html=1;rounded=0;exitX=1;exitY=0.5;exitDx=0;exitDy=0;entryX=0;entryY=0.5;entryDx=0;entryDy=0;fontSize=20;fontStyle=1;" parent="1" source="azl0_189tR_DPAjRDPvX-22" target="azl0_189tR_DPAjRDPvX-45" edge="1">
          <mxGeometry width="50" height="50" relative="1" as="geometry">
            <mxPoint x="809.0431176434713" y="440.8395061728395" as="sourcePoint" />
            <mxPoint x="875.2991400866013" y="440.35185185185185" as="targetPoint" />
          </mxGeometry>
        </mxCell>
      </root>
    </mxGraphModel>
  </diagram>
</mxfile>
